<?xml version="1.0" encoding="utf-8"?>
<!-- Generator: Adobe Illustrator 16.0.4, SVG Export Plug-In . SVG Version: 6.00 Build 0)  -->
<!DOCTYPE svg PUBLIC "-//W3C//DTD SVG 1.1//EN" "http://www.w3.org/Graphics/SVG/1.1/DTD/svg11.dtd">
<svg version="1.1" id="Layer_1" xmlns="http://www.w3.org/2000/svg" xmlns:xlink="http://www.w3.org/1999/xlink" x="0px" y="0px"
	 width="50px" height="50px" viewBox="0 0 50 50" enable-background="new 0 0 50 50" xml:space="preserve">
<path fill="#FFFFFF" d="M49.836,8.922c-1.834,0.812-3.809,1.364-5.874,1.61c2.114-1.265,3.732-3.268,4.493-5.657
	c-1.975,1.172-4.161,2.022-6.491,2.48c-1.864-1.988-4.52-3.23-7.461-3.23c-5.643,0-10.224,4.578-10.224,10.225
	c0,0.802,0.091,1.583,0.265,2.33c-8.5-0.426-16.029-4.497-21.073-10.683C2.588,7.51,2.086,9.264,2.086,11.139
	c0,3.548,1.804,6.678,4.548,8.509c-1.676-0.053-3.252-0.511-4.631-1.277c0,0.044,0,0.085,0,0.127c0,4.957,3.525,9.087,8.201,10.025
	c-0.859,0.236-1.76,0.364-2.693,0.364c-0.66,0-1.299-0.067-1.926-0.191c1.302,4.066,5.077,7.023,9.553,7.105
	c-3.501,2.737-7.909,4.371-12.698,4.371c-0.826,0-1.64-0.049-2.439-0.146c4.526,2.905,9.899,4.603,15.674,4.603
	c18.801,0,29.091-15.58,29.091-29.094c0-0.443-0.013-0.885-0.033-1.322C46.733,12.774,48.467,10.97,49.836,8.922z"/>
</svg>
